<?xml version="1.0" standalone="no"?><!DOCTYPE svg PUBLIC "-//W3C//DTD SVG 1.1//EN" "http://www.w3.org/Graphics/SVG/1.1/DTD/svg11.dtd"><svg t="1640229540660" class="icon" viewBox="0 0 1024 1024" version="1.1" xmlns="http://www.w3.org/2000/svg" p-id="4061" xmlns:xlink="http://www.w3.org/1999/xlink" width="48" height="48"><defs><style type="text/css"></style></defs><path d="M930.909091 726.109091c-20.169697 0-35.684848-17.066667-35.684849-35.684849 0-211.006061-170.666667-383.224242-383.224242-383.224242S128.775758 477.866667 128.775758 690.424242c0 20.169697-17.066667 35.684848-35.684849 35.684849s-35.684848-17.066667-35.684848-35.684849C55.854545 437.527273 260.654545 234.278788 512 234.278788s456.145455 204.8 456.145455 456.145454c0 18.618182-17.066667 35.684848-37.236364 35.684849z" opacity=".8" p-id="4062" fill="#ffffff"></path><path d="M620.606061 269.963636c-13.963636 0-27.927273-12.412121-27.927273-27.927272 0-40.339394-32.581818-72.921212-72.921212-72.921212s-72.921212 32.581818-72.921212 72.921212c0 13.963636-12.412121 27.927273-27.927273 27.927272-13.963636 0-27.927273-12.412121-27.927273-27.927272 0-71.369697 55.854545-127.224242 127.224243-127.224243s127.224242 55.854545 127.224242 127.224243c3.10303 15.515152-9.309091 27.927273-24.824242 27.927272z" opacity=".8" p-id="4063" fill="#ffffff"></path><path d="M38.787879 690.424242h947.975757c20.169697 0 35.684848 17.066667 35.684849 35.684849 0 20.169697-17.066667 35.684848-35.684849 35.684848H38.787879C18.618182 761.793939 3.10303 744.727273 3.10303 726.109091c-1.551515-20.169697 15.515152-35.684848 35.684849-35.684849zM38.787879 836.266667h947.975757c20.169697 0 35.684848 17.066667 35.684849 35.684848 0 20.169697-17.066667 35.684848-35.684849 35.684849H38.787879c-20.169697 0-35.684848-17.066667-35.684849-35.684849-1.551515-20.169697 15.515152-35.684848 35.684849-35.684848z" opacity=".8" p-id="4064" fill="#ffffff"></path><path d="M786.618182 598.884848c-12.412121 0-23.272727-7.757576-27.927273-20.169696-18.618182-66.715152-49.648485-103.951515-96.193939-108.606061-13.963636-1.551515-24.824242-17.066667-23.272728-31.030303 1.551515-13.963636 17.066667-24.824242 31.030303-23.272727 71.369697 9.309091 121.018182 60.509091 144.29091 148.945454 3.10303 13.963636-6.206061 29.478788-20.169697 32.581818-1.551515 1.551515-3.10303 1.551515-7.757576 1.551515z" opacity=".8" p-id="4065" fill="#ffffff"></path></svg>