<?xml version="1.0" standalone="no"?><!DOCTYPE svg PUBLIC "-//W3C//DTD SVG 1.1//EN" "http://www.w3.org/Graphics/SVG/1.1/DTD/svg11.dtd"><svg t="1640230559092" class="icon" viewBox="0 0 1024 1024" version="1.1" xmlns="http://www.w3.org/2000/svg" p-id="10824" xmlns:xlink="http://www.w3.org/1999/xlink" width="48" height="48"><defs><style type="text/css"></style></defs><path d="M869.2 392.5H960l-20.5-213.7H761.1l-20.5 213.7h90.9v240.6h-50.8v180.8h139.2V633.1h-50.8V392.5z m-56.7-157.2h75.7l9.7 100.7h-95.1l9.7-100.7z m50.9 522.1h-26.2v-67.8h26.2v67.8z" p-id="10825" fill="#ffffff"></path><path d="M721.5 565.3H699v-67.2c0-46.7-38-84.8-84.8-84.8H218.7c-46.7 0-84.8 38-84.8 84.8v67.2h-22.5c-26 0-47.1 21.1-47.1 47.1v156c0 26 21.1 47.1 47.1 47.1h610.1c26 0 47.1-21.1 47.1-47.1v-156c0-26-21.1-47.1-47.1-47.1z m-78.9-67.2v67.2H583v92.6H444.7v-188h169.6c15.6-0.1 28.3 12.6 28.3 28.2z m-452.1 0c0-15.6 12.7-28.3 28.3-28.3h169.5v188H250.1v-92.6h-59.6v-67.1z m521.6 260.8H120.9V621.8H134v0.1h59.6v92.6h445.9v-92.6h59.6v-0.1h13.1v137.1z" p-id="10826" fill="#ffffff"></path></svg>