<?xml version="1.0" standalone="no"?><!DOCTYPE svg PUBLIC "-//W3C//DTD SVG 1.1//EN" "http://www.w3.org/Graphics/SVG/1.1/DTD/svg11.dtd"><svg t="1640230988601" class="icon" viewBox="0 0 1024 1024" version="1.1" xmlns="http://www.w3.org/2000/svg" p-id="12540" xmlns:xlink="http://www.w3.org/1999/xlink" width="48" height="48"><defs><style type="text/css"></style></defs><path d="M487.344 512.204a17.314 17.314 0 0 0-24.286-3.066c-16.566 12.854-48.222 21.16-80.64 21.16-33.214 0-64.44-8.152-79.552-20.77a17.31 17.31 0 0 0-22.188 26.572c21.61 18.044 59.644 28.816 101.738 28.816 40.838 0 78.918-10.626 101.862-28.426a17.308 17.308 0 0 0 3.066-24.286zM787.604 512.204a17.314 17.314 0 0 0-24.286-3.066c-16.566 12.854-48.22 21.16-80.64 21.16-33.212 0-64.438-8.152-79.55-20.77a17.31 17.31 0 0 0-22.188 26.572c21.61 18.044 59.644 28.816 101.736 28.816 40.838 0.002 78.918-10.626 101.862-28.426 7.552-5.86 8.926-16.736 3.066-24.286zM528.46 669.202c-48.676 0-88.276 39.6-88.276 88.276 0 48.676 39.6 88.274 88.276 88.274s88.276-39.598 88.276-88.274-39.6-88.276-88.276-88.276z m0 141.93c-29.586 0-53.656-24.07-53.656-53.654 0-29.586 24.068-53.656 53.656-53.656 29.586 0 53.656 24.07 53.656 53.656 0 29.584-24.07 53.654-53.656 53.654zM614.17 390.38c-4.14-8.618-14.48-12.254-23.096-8.118l-29.944 14.37 19.944-57.736a17.308 17.308 0 0 0-24.478-20.94L481.2 357.96a17.312 17.312 0 0 0 16.23 30.582L534 369.138l-19.134 55.394a17.308 17.308 0 0 0 23.85 21.256l67.334-32.312a17.312 17.312 0 0 0 8.12-23.096z" fill="#ffffff" p-id="12541"></path><path d="M761.63 204.724a17.366 17.366 0 0 0-2.276-2.412c-3.6-3.086-13.234-5.46-19.366-2.142l-107.052 56.802a17.31 17.31 0 0 0-7.176 23.406c4.478 8.44 14.958 11.662 23.406 7.176l68.226-36.204-33.192 96.096a17.31 17.31 0 0 0 24.026 21.172l95.672-47.258c30.758 58.116 47.104 123.218 47.104 190.64 0 225.076-183.112 408.188-408.188 408.188S34.62 737.078 34.62 512.002 217.734 103.81 442.81 103.81c51.89 0 102.446 9.602 150.25 28.536a17.3 17.3 0 0 0 22.466-9.718 17.306 17.306 0 0 0-9.718-22.466c-51.882-20.55-106.722-30.972-162.998-30.972C198.642 69.19 0 267.834 0 512.002c0 244.166 198.642 442.808 442.81 442.808 244.166 0 442.808-198.642 442.808-442.808 0-115.294-44.028-224.34-123.988-307.278z m-30.948 114.192l24.194-70.05a409.22 409.22 0 0 1 31.482 42.546l-55.676 27.504zM1022.292 199.962c-4.138-8.62-14.482-12.248-23.096-8.118l-83.632 40.136 46.64-135.036a17.302 17.302 0 0 0-5.108-18.8 17.318 17.318 0 0 0-19.368-2.14l-135.516 71.906a17.31 17.31 0 0 0 16.23 30.582l96.694-51.304-45.832 132.694a17.308 17.308 0 0 0 23.85 21.256l121.026-58.078c8.612-4.14 12.248-14.48 8.112-23.098z" fill="#ffffff" p-id="12542"></path><path d="M658.356 144.412m-17.31 0a17.31 17.31 0 1 0 34.62 0 17.31 17.31 0 1 0-34.62 0Z" fill="#ffffff" p-id="12543"></path></svg>