<?xml version="1.0" standalone="no"?><!DOCTYPE svg PUBLIC "-//W3C//DTD SVG 1.1//EN" "http://www.w3.org/Graphics/SVG/1.1/DTD/svg11.dtd"><svg t="1640230274950" class="icon" viewBox="0 0 1024 1024" version="1.1" xmlns="http://www.w3.org/2000/svg" p-id="8275" xmlns:xlink="http://www.w3.org/1999/xlink" width="48" height="48"><defs><style type="text/css"></style></defs><path d="M382.082289 190.501189m-38.995737 0a38.995737 38.995737 0 1 0 77.991474 0 38.995737 38.995737 0 1 0-77.991474 0Z" fill="#ffffff" p-id="8276"></path><path d="M894.357223 414.095451H858.728024l-63.122596-345.070191A84.163461 84.163461 0 0 0 712.844691 0.011222H311.665526a84.163461 84.163461 0 0 0-84.163461 69.014038l-62.561506 345.070191H129.31136a42.081731 42.081731 0 0 0-42.08173 42.081731v31.421025A426.989293 426.989293 0 0 0 286.977578 847.256731V981.918269a42.081731 42.081731 0 0 0 42.08173 42.081731h364.708332a42.081731 42.081731 0 0 0 42.081731-42.081731v-134.661538a426.989293 426.989293 0 0 0 199.747948-359.658524v-31.421025a42.081731 42.081731 0 0 0-41.240096-42.081731zM283.611039 79.124875A28.054487 28.054487 0 0 1 311.665526 56.120196h401.179165a28.054487 28.054487 0 0 1 28.054487 23.004679l60.878237 334.970576H221.891168z m415.486954 725.208491a38.715192 38.715192 0 0 0-18.515962 33.104295v129.05064h-336.653845v-129.05064a38.995737 38.995737 0 0 0-18.796506-33.104295 371.441409 371.441409 0 0 1-168.326922-220.227723H867.14437a371.721954 371.721954 0 0 1-168.046377 220.227723z m181.231986-316.735159a380.69939 380.69939 0 0 1-2.524904 40.398462H145.863508A318.698973 318.698973 0 0 1 143.338604 487.598207v-17.393782h736.991375z" fill="#ffffff" p-id="8277"></path></svg>